<svg width="275" height="151" viewBox="0 0 275 151" fill="none" xmlns="http://www.w3.org/2000/svg">
<path d="M1.94944 150.5L274.499 0.845625L274.329 121.035C274.305 137.311 261.104 150.5 244.829 150.5H1.94944Z" fill="#00A3FF" stroke="#00A3FF"/>
<path d="M201.591 108.479C200.762 108.479 200.091 109.151 200.091 109.979C200.091 110.808 200.762 111.479 201.591 111.479V108.479ZM212.753 111.479C213.581 111.479 214.253 110.808 214.253 109.979C214.253 109.151 213.581 108.479 212.753 108.479V111.479ZM216.692 108.479C215.863 108.479 215.192 109.151 215.192 109.979C215.192 110.808 215.863 111.479 216.692 111.479V108.479ZM223.914 111.479C224.743 111.479 225.414 110.808 225.414 109.979C225.414 109.151 224.743 108.479 223.914 108.479V111.479ZM201.591 115.044C200.762 115.044 200.091 115.715 200.091 116.544C200.091 117.372 200.762 118.044 201.591 118.044V115.044ZM217.348 118.044C218.177 118.044 218.848 117.372 218.848 116.544C218.848 115.715 218.177 115.044 217.348 115.044V118.044ZM216.364 80.441L217.424 79.3802C216.844 78.7997 215.904 78.7939 215.316 79.3672L216.364 80.441ZM227.778 93.9736C228.364 94.5593 229.313 94.5592 229.899 93.9734C230.485 93.3875 230.485 92.4378 229.899 91.852L227.778 93.9736ZM226.54 103.744V105.244C227.354 105.244 228.019 104.595 228.04 103.782L226.54 103.744ZM218.333 103.744H216.833C216.833 104.572 217.505 105.244 218.333 105.244V103.744ZM202.518 91.8348C201.922 92.4108 201.907 93.3604 202.483 93.9558C203.059 94.5512 204.008 94.5669 204.604 93.9908L202.518 91.8348ZM205.596 103.744H204.096C204.096 104.572 204.768 105.244 205.596 105.244V103.744ZM214.066 103.744V105.244C214.894 105.244 215.566 104.572 215.566 103.744H214.066ZM214.066 96.1949V94.6949H212.566V96.1949H214.066ZM220.116 70.9231C220.116 71.7515 220.788 72.4231 221.616 72.4231C222.445 72.4231 223.116 71.7515 223.116 70.9231H220.116ZM221.616 66H223.116C223.116 65.1716 222.445 64.5 221.616 64.5V66ZM175 66V64.5C174.601 64.5 174.218 64.6593 173.936 64.9427C173.654 65.2261 173.498 65.61 173.5 66.0095L175 66ZM175.322 116.872L173.822 116.881L173.823 116.96L173.831 117.037L175.322 116.872ZM184.186 116.872L185.675 117.047L185.686 116.96L185.686 116.872L184.186 116.872ZM193.056 130H191.556V131.5H193.056V130ZM212.753 131.5C213.581 131.5 214.253 130.828 214.253 130C214.253 129.172 213.581 128.5 212.753 128.5V131.5ZM186.162 119.638C185.333 119.638 184.662 120.31 184.662 121.138C184.662 121.967 185.333 122.638 186.162 122.638V119.638ZM195.997 73.6898C195.169 73.6968 194.503 74.3739 194.51 75.2023C194.517 76.0307 195.194 76.6966 196.023 76.6897L195.997 73.6898ZM237.843 105.713C237.843 106.541 238.515 107.213 239.343 107.213C240.172 107.213 240.843 106.541 240.843 105.713H237.843ZM223.914 129.672V131.172H224.544L224.985 130.722L223.914 129.672ZM240 113.262L241.071 114.312C241.353 114.025 241.507 113.637 241.5 113.235C241.493 112.833 241.324 112.451 241.033 112.174L240 113.262ZM233.434 107.026L234.467 105.938C233.878 105.378 232.949 105.39 232.374 105.965L233.434 107.026ZM217.02 123.436L215.96 122.375L215.52 122.814V123.436H217.02ZM217.02 129.672H215.52V131.172H217.02V129.672ZM201.591 111.479H212.753V108.479H201.591V111.479ZM216.692 111.479H223.914V108.479H216.692V111.479ZM201.591 118.044H217.348V115.044H201.591V118.044ZM215.303 81.5018L225.808 92.0044L227.929 89.8828L217.424 79.3802L215.303 81.5018ZM225.808 92.0044L227.778 93.9736L229.899 91.852L227.929 89.8828L225.808 92.0044ZM225.369 90.9051L225.041 103.705L228.04 103.782L228.368 90.982L225.369 90.9051ZM226.54 102.244H218.333V105.244H226.54V102.244ZM219.833 103.744V96.1949H216.833V103.744H219.833ZM215.316 79.3672L204.549 89.8698L206.643 92.0174L217.411 81.5148L215.316 79.3672ZM204.553 89.8656L202.518 91.8348L204.604 93.9908L206.639 92.0216L204.553 89.8656ZM204.096 90.9436V103.744H207.096V90.9436H204.096ZM205.596 105.244H214.066V102.244H205.596V105.244ZM215.566 103.744V96.1949H212.566V103.744H215.566ZM214.066 97.6949H219.318V94.6949H214.066V97.6949ZM223.116 70.9231V66H220.116V70.9231H223.116ZM221.616 64.5H175V67.5H221.616V64.5ZM173.5 66.0095L173.822 116.881L176.822 116.862L176.5 65.9905L173.5 66.0095ZM173.831 117.037C174.245 120.759 176.953 122.736 179.784 122.679C182.562 122.624 185.257 120.603 185.675 117.047L182.696 116.696C182.458 118.72 181.049 119.653 179.724 119.68C178.451 119.705 177.056 118.893 176.813 116.706L173.831 117.037ZM184.186 116.872C185.686 116.872 185.686 116.872 185.686 116.872C185.686 116.871 185.686 116.871 185.686 116.87C185.686 116.869 185.686 116.868 185.686 116.866C185.686 116.861 185.686 116.855 185.686 116.847C185.686 116.83 185.686 116.804 185.686 116.771C185.686 116.705 185.686 116.606 185.686 116.477C185.686 116.219 185.686 115.839 185.686 115.355C185.686 114.387 185.686 113 185.687 111.323C185.687 107.969 185.688 103.457 185.689 98.8208C185.69 89.5491 185.692 79.7848 185.692 77.8154H182.692C182.692 79.7845 182.69 89.5484 182.689 98.8203C182.688 103.456 182.687 107.969 182.687 111.323C182.686 113 182.686 114.387 182.686 115.355C182.686 115.839 182.686 116.218 182.686 116.476C182.686 116.605 182.686 116.704 182.686 116.771C182.686 116.804 182.686 116.829 182.686 116.846C182.686 116.855 182.686 116.861 182.686 116.865C182.686 116.867 182.686 116.869 182.686 116.87C182.686 116.87 182.686 116.871 182.686 116.871C182.686 116.871 182.686 116.872 184.186 116.872ZM185.692 77.8154C185.692 77.5087 185.822 77.229 186.311 76.954C186.845 76.6543 187.669 76.4672 188.596 76.4844C189.52 76.5015 190.365 76.7184 190.924 77.0394C191.472 77.3539 191.556 77.6321 191.556 77.8154H194.556C194.556 76.1936 193.531 75.0769 192.417 74.4375C191.315 73.8047 189.944 73.5088 188.652 73.4849C187.363 73.461 185.971 73.7047 184.842 74.3383C183.67 74.9967 182.692 76.1528 182.692 77.8154H185.692ZM193.056 131.5H212.753V128.5H193.056V131.5ZM191.556 77.8154V121.138H194.556V77.8154H191.556ZM191.556 121.138V130H194.556V121.138H191.556ZM186.162 122.638H193.056V119.638H186.162V122.638ZM196.01 75.1897C196.023 76.6897 196.023 76.6897 196.023 76.6897C196.023 76.6897 196.024 76.6897 196.024 76.6897C196.026 76.6897 196.027 76.6896 196.03 76.6896C196.034 76.6896 196.042 76.6895 196.051 76.6895C196.07 76.6893 196.098 76.6891 196.135 76.6888C196.209 76.6881 196.318 76.6872 196.461 76.6861C196.748 76.6838 197.168 76.6804 197.704 76.6762C198.775 76.6679 200.307 76.6564 202.15 76.6436C205.837 76.6179 210.77 76.5872 215.754 76.5667C220.739 76.5461 225.771 76.5359 229.658 76.5513C231.603 76.559 233.255 76.573 234.469 76.5953C235.077 76.6064 235.568 76.6194 235.927 76.6344C236.344 76.6517 236.461 76.6681 236.423 76.6606L237.011 73.7189C236.769 73.6703 236.387 73.6509 236.052 73.6369C235.658 73.6206 235.141 73.6071 234.524 73.5958C233.288 73.5731 231.619 73.559 229.67 73.5513C225.771 73.5359 220.729 73.5462 215.742 73.5667C210.754 73.5872 205.818 73.618 202.129 73.6436C200.285 73.6564 198.752 73.668 197.68 73.6763C197.144 73.6805 196.724 73.6839 196.437 73.6862C196.294 73.6873 196.184 73.6883 196.11 73.6889C196.073 73.6892 196.045 73.6894 196.026 73.6896C196.017 73.6896 196.009 73.6897 196.005 73.6897C196.002 73.6898 196.001 73.6898 195.999 73.6898C195.999 73.6898 195.998 73.6898 195.998 73.6898C195.998 73.6898 195.997 73.6898 196.01 75.1897ZM236.423 76.6606C237.027 76.7813 237.361 76.9929 237.54 77.1881C237.702 77.364 237.843 77.6409 237.843 78.1436H240.843C240.843 77.0053 240.493 75.9693 239.751 75.1606C239.028 74.3712 238.049 73.9264 237.011 73.7189L236.423 76.6606ZM237.843 78.1436V105.713H240.843V78.1436H237.843ZM224.985 130.722L241.071 114.312L238.929 112.212L222.843 128.622L224.985 130.722ZM241.033 112.174L234.467 105.938L232.401 108.113L238.967 114.349L241.033 112.174ZM232.374 105.965L215.96 122.375L218.081 124.497L234.495 108.086L232.374 105.965ZM215.52 123.436V129.672H218.52V123.436H215.52ZM217.02 131.172H223.914V128.172H217.02V131.172ZM217.273 123.184L220.556 126.466L222.677 124.344L219.394 121.062L217.273 123.184ZM220.556 126.466L223.838 129.748L225.96 127.626L222.677 124.344L220.556 126.466ZM222.677 126.466L233.838 115.307L231.717 113.185L220.556 124.344L222.677 126.466ZM231.717 115.307L235 118.589L237.121 116.467L233.838 113.185L231.717 115.307ZM233.838 113.185L230.555 109.903L228.434 112.025L231.717 115.307L233.838 113.185Z" fill="white"/>
</svg>
