<svg width="442" height="341" viewBox="0 0 442 341" fill="none" xmlns="http://www.w3.org/2000/svg">
<path fill-rule="evenodd" clip-rule="evenodd" d="M96 106L1 181V340H192.5V180L96 106ZM82 225.5V196.5H111.5V225.5H82Z" fill="white"/>
<path fill-rule="evenodd" clip-rule="evenodd" d="M380.5 191.5L319.5 238.5V339.5H441.5V238.5L381 191.5H380.5ZM395.5 277.5V248.5H366.5V277.5H395.5Z" fill="white"/>
<path fill-rule="evenodd" clip-rule="evenodd" d="M231.5 1L120 88L220.5 166.5L220 340H289L288.5 224L380.5 152.5V118.5L231.5 1ZM217 111.5V82.5H245.5V111.5H217Z" fill="white"/>
<path fill-rule="evenodd" clip-rule="evenodd" d="M96 106L1 181V340H192.5V180L96 106ZM82 225.5V196.5H111.5V225.5H82Z" stroke="white"/>
<path fill-rule="evenodd" clip-rule="evenodd" d="M380.5 191.5L319.5 238.5V339.5H441.5V238.5L381 191.5H380.5ZM395.5 277.5V248.5H366.5V277.5H395.5Z" stroke="white"/>
<path fill-rule="evenodd" clip-rule="evenodd" d="M231.5 1L120 88L220.5 166.5L220 340H289L288.5 224L380.5 152.5V118.5L231.5 1ZM217 111.5V82.5H245.5V111.5H217Z" stroke="white"/>
</svg>
