<svg width="206" height="317" viewBox="0 0 206 317" fill="none" xmlns="http://www.w3.org/2000/svg">
<path fill-rule="evenodd" clip-rule="evenodd" d="M131.077 146.506L143.577 154.506L160.173 156.151L167.077 169.506L179.577 181.401L175.577 197.006L178.155 212.611L165.577 222.506L162.5 230.5L160 237.506L143.577 240.006L131.077 247.506L117.577 240.006L101.982 237.861L97.5773 222.506L84 212.611L86.0773 197.006L84 181.401L95.0773 171.006L101.982 156.151L117.577 154.506L131.077 146.506ZM153.783 165.566L158.966 175.592L168.434 184.601L165.368 196.56L167.325 208.408L157.11 216.444L152.784 228.733L140.224 230.356L130.885 235.96L120.796 230.355L109.798 228.842L106.243 216.447L94.6976 208.034L96.1655 197.006L94.5907 185.176L103.33 176.975L108.663 165.502L120.797 164.222L130.876 158.25L140.206 164.221L153.783 165.566Z" fill="white"/>
<path fill-rule="evenodd" clip-rule="evenodd" d="M178.639 30.0774L150.202 0L150 0.0899997V0.00603008H0V272.006H99.5V316.223L131.373 295.94L162.5 316.691V272.006H205.051L203.949 57.006H203.916L203.917 57.0037L178.639 30.0774ZM171.355 36.9282L150 14.3416V57.006H190.203L171.367 36.9411L171.355 36.9282ZM140 67.006H194L195 262.006H162.5V230.5L152.5 238.648V298.006L131.5 284.006L109.5 298.006V262.006L109.78 238.934L99.3635 228.733L99.5 262.006H10V10.006H140V67.006Z" fill="white"/>
<path d="M32.5 122.5H148" stroke="white" stroke-width="10"/>
<path d="M33 92H174" stroke="white" stroke-width="10"/>
<path d="M33 61H117" stroke="white" stroke-width="10"/>
<circle cx="170.5" cy="122.5" r="3.5" fill="white" stroke="white" stroke-width="4"/>
</svg>
