<svg width="287" height="273" viewBox="0 0 287 273" fill="none" xmlns="http://www.w3.org/2000/svg">
<path d="M188.9 161.928C188.9 186.781 168.753 206.928 143.9 206.928C119.047 206.928 98.9003 186.781 98.9003 161.928C98.9003 137.075 119.047 116.928 143.9 116.928C168.753 116.928 188.9 137.075 188.9 161.928Z" fill="white"/>
<path d="M156.4 6.92809C156.4 6.92809 142.4 -6.07191 128.9 6.42809L2.90028 109.428C2.90028 109.428 -0.599723 112.928 1.90028 117.928C1.90028 117.928 3.90027 121.928 7.90027 122.428H28.4003L27.9003 258.428C27.9003 258.428 28.4003 263.928 32.9003 267.428C32.9003 267.428 36.4003 270.428 41.4003 271.428H221.4L194.9 245.428C194.9 245.428 192.9 242.928 192.9 240.428C192.9 240.428 192.9 237.428 194.9 235.928L183.4 224.428C170.435 232.785 161.933 235.054 144.9 235.428C104.031 235.428 69.9003 204.073 69.9003 162.928C69.9003 121.783 101.531 88.9277 142.4 88.9277C183.269 88.9277 217.4 121.783 217.4 162.928C216.807 180.341 213.78 188.799 205 202.999L215.9 213.928C215.9 213.928 219.4 211.928 222.4 211.928C225.4 211.928 226.9 213.428 226.9 213.428L258.4 244.928V122.928H279.9C279.9 122.928 284.4 121.428 285.4 117.428C286.4 113.428 284.9 110.428 284.9 110.428L245.4 77.9277V30.4277C245.4 30.4277 245.4 26.4277 242.9 24.4277C240.4 22.4277 238.4 22.4277 238.4 22.4277H210.9C210.9 22.4277 208.9 22.9277 206.9 24.9277C204.9 26.9277 204.9 29.9277 204.9 29.9277V44.4277L156.4 6.92809Z" fill="white"/>
<path fill-rule="evenodd" clip-rule="evenodd" d="M2.90024 109.428L128.9 6.42807C142.4 -6.07193 156.4 6.92807 156.4 6.92807L204.9 44.4277V29.9277C204.9 29.9277 204.9 26.9277 206.9 24.9277C208.9 22.9277 210.9 22.4277 210.9 22.4277H238.4C238.4 22.4277 240.4 22.4277 242.9 24.4277C245.4 26.4277 245.4 30.4277 245.4 30.4277V77.9277L284.9 110.428C284.9 110.428 286.4 113.428 285.4 117.428C284.4 121.428 279.9 122.928 279.9 122.928H258.4V244.928L226.9 213.428C226.9 213.428 225.4 211.928 222.4 211.928C219.4 211.928 215.9 213.928 215.9 213.928L205 202.999C213.78 188.799 216.807 180.341 217.4 162.928C217.4 121.782 183.269 88.9277 142.4 88.9277C101.531 88.9277 69.9002 121.782 69.9002 162.928C69.9002 204.073 104.031 235.428 144.9 235.428C161.933 235.054 170.435 232.785 183.4 224.428L194.9 235.928C194.624 236.135 194.386 236.37 194.181 236.623C192.9 238.199 192.9 240.428 192.9 240.428C192.9 242.928 194.9 245.428 194.9 245.428L221.4 271.428H41.4002C36.4002 270.428 32.9002 267.428 32.9002 267.428C28.4002 263.928 27.9002 258.428 27.9002 258.428L28.4002 122.428H7.90023C3.90023 121.928 1.90024 117.928 1.90024 117.928C-0.599765 112.928 2.90024 109.428 2.90024 109.428ZM27.3965 123.428L26.9001 258.471L26.9043 258.518L27.9002 258.428C26.9043 258.518 26.9043 258.518 26.9043 258.518L26.9047 258.522L26.9053 258.528L26.9071 258.546L26.9097 258.571C26.9108 258.581 26.9121 258.593 26.9136 258.605C26.9193 258.655 26.928 258.725 26.9405 258.812C26.9656 258.988 27.0061 259.236 27.0691 259.543C27.195 260.156 27.4118 261.005 27.7777 261.97C28.5061 263.89 29.8422 266.31 32.2699 268.204L32.3033 268.232C32.3206 268.246 32.3418 268.264 32.367 268.284C32.3878 268.301 32.4113 268.32 32.4375 268.341C32.553 268.433 32.7202 268.562 32.9352 268.72C33.3649 269.034 33.9875 269.459 34.7714 269.917C36.3346 270.828 38.5645 271.88 41.2041 272.408L41.3012 272.428H223.847L195.649 244.761C195.64 244.749 195.628 244.734 195.616 244.717C195.568 244.654 195.498 244.557 195.412 244.432C195.241 244.182 195.011 243.824 194.783 243.395C194.313 242.514 193.901 241.438 193.9 240.43V240.428C193.9 240.429 193.9 240.428 193.9 240.428L193.9 240.415C193.901 240.401 193.902 240.376 193.903 240.342C193.906 240.274 193.913 240.169 193.926 240.038C193.953 239.772 194.008 239.404 194.116 238.998C194.339 238.164 194.755 237.287 195.5 236.728L196.423 236.036L183.537 223.15L182.858 223.587C176.427 227.733 171.153 230.336 165.404 231.959C159.649 233.584 153.365 234.241 144.889 234.428C104.53 234.422 70.9002 203.471 70.9002 162.928C70.9002 122.31 102.108 89.9277 142.4 89.9277C182.731 89.9277 216.391 122.346 216.4 162.911C216.105 171.556 215.207 177.921 213.317 183.865C211.425 189.817 208.522 195.401 204.149 202.473L203.734 203.146L215.732 215.175L216.396 214.796L216.401 214.793L216.426 214.779C216.449 214.767 216.484 214.747 216.531 214.722C216.624 214.672 216.764 214.598 216.941 214.51C217.297 214.332 217.803 214.094 218.397 213.856C219.607 213.372 221.091 212.928 222.4 212.928C223.727 212.928 224.7 213.258 225.328 213.572C225.644 213.73 225.874 213.885 226.019 213.993C226.091 214.048 226.142 214.09 226.171 214.116C226.186 214.129 226.195 214.137 226.199 214.14L226.2 214.142L259.4 247.342V123.928H280.063L280.216 123.876L279.9 122.928C280.216 123.876 280.216 123.877 280.216 123.876L280.218 123.876L280.22 123.875L280.225 123.873L280.241 123.868L280.251 123.865C280.262 123.861 280.275 123.856 280.29 123.851C280.331 123.836 280.388 123.815 280.459 123.787C280.602 123.731 280.801 123.649 281.04 123.538C281.518 123.316 282.165 122.976 282.849 122.497C284.204 121.548 285.789 119.994 286.37 117.67C286.914 115.497 286.778 113.593 286.506 112.232C286.37 111.55 286.199 111.002 286.059 110.617C285.989 110.425 285.926 110.273 285.88 110.166C285.856 110.112 285.837 110.069 285.823 110.038L285.805 110.001L285.799 109.988L285.796 109.984L285.795 109.982C285.795 109.982 285.795 109.98 284.9 110.428L285.795 109.98L285.7 109.79L246.4 77.4555V30.4277H245.4C246.4 30.4277 246.4 30.4281 246.4 30.4277V30.4245L246.4 30.4199L246.4 30.4062L246.399 30.3618C246.399 30.3249 246.397 30.2734 246.394 30.2089C246.389 30.0799 246.378 29.8982 246.357 29.6758C246.314 29.2324 246.229 28.6192 246.058 27.9352C245.722 26.5926 245.022 24.8447 243.525 23.6468C242.171 22.5635 240.932 22.0066 240.007 21.7219C239.545 21.58 239.164 21.5064 238.888 21.4683C238.75 21.4493 238.639 21.4392 238.556 21.4338C238.542 21.4328 238.529 21.4321 238.517 21.4314C238.493 21.4301 238.473 21.4293 238.455 21.4287L238.422 21.4279L238.41 21.4277L238.405 21.4277L238.402 21.4277L238.401 21.4277C238.401 21.4277 238.4 21.4277 238.4 22.4277V21.4277H210.777L210.658 21.4576L210.9 22.4277C210.658 21.4576 210.658 21.4575 210.658 21.4576L210.655 21.4583L210.651 21.4593L210.641 21.4618L210.613 21.4694C210.59 21.4756 210.56 21.4841 210.523 21.4953C210.449 21.5175 210.347 21.5502 210.22 21.5953C209.967 21.6856 209.618 21.826 209.203 22.0333C208.374 22.4477 207.282 23.132 206.193 24.2206C205.019 25.3945 204.455 26.8349 204.18 27.9352C204.041 28.491 203.972 28.9775 203.936 29.3282C203.919 29.5041 203.91 29.6472 203.905 29.7495C203.903 29.8007 203.902 29.8418 203.901 29.8718L203.9 29.9084L203.9 29.9203L203.9 29.9246V29.9263C203.9 29.9266 203.9 29.9277 204.9 29.9277H203.9V42.3905L157.044 6.1616L157.029 6.14792C156.998 6.12015 156.954 6.08078 156.896 6.03098C156.782 5.93141 156.616 5.79007 156.401 5.61647C155.972 5.26945 155.349 4.79244 154.56 4.26205C152.984 3.20359 150.728 1.9199 148.022 1.03962C142.572 -0.733199 135.307 -0.851793 128.244 5.67314L2.22855 108.685L2.19313 108.721L2.90024 109.428C2.19313 108.721 2.19274 108.721 2.19235 108.721L2.19149 108.722L2.18952 108.724L2.18463 108.729L2.17112 108.743C2.16049 108.754 2.14666 108.769 2.12993 108.787C2.09648 108.822 2.05135 108.872 1.99696 108.935C1.8883 109.062 1.74196 109.242 1.57763 109.473C1.25003 109.933 0.844448 110.603 0.526406 111.452C-0.118039 113.17 -0.387217 115.589 1.00581 118.375L1.90024 117.928C1.00581 118.375 1.00563 118.375 1.00581 118.375L1.0075 118.378L1.00994 118.383L1.0171 118.397C1.02288 118.408 1.03068 118.423 1.04051 118.442C1.06016 118.479 1.08793 118.53 1.12385 118.593C1.19563 118.72 1.30028 118.896 1.43796 119.107C1.71247 119.528 2.12305 120.092 2.67203 120.676C3.76188 121.834 5.46123 123.131 7.77619 123.42L7.83797 123.428H27.3965ZM189.9 161.928C189.9 187.333 169.305 207.928 143.9 207.928C118.495 207.928 97.9002 187.333 97.9002 161.928C97.9002 136.523 118.495 115.928 143.9 115.928C169.305 115.928 189.9 136.523 189.9 161.928ZM143.9 206.928C168.753 206.928 188.9 186.781 188.9 161.928C188.9 137.075 168.753 116.928 143.9 116.928C119.047 116.928 98.9002 137.075 98.9002 161.928C98.9002 186.781 119.047 206.928 143.9 206.928Z" fill="white"/>
</svg>
