<svg width="110" height="109" viewBox="0 0 110 109" fill="none" xmlns="http://www.w3.org/2000/svg">
<path d="M79.5 44C79.5 63.0344 63.8495 78.5 44.5 78.5C25.1505 78.5 9.5 63.0344 9.5 44C9.5 24.9656 25.1505 9.5 44.5 9.5C63.8495 9.5 79.5 24.9656 79.5 44Z" stroke="white" stroke-width="3"/>
<path d="M87.5 44C87.5 67.4562 68.2643 86.5 44.5 86.5C20.7357 86.5 1.5 67.4562 1.5 44C1.5 20.5438 20.7357 1.5 44.5 1.5C68.2643 1.5 87.5 20.5438 87.5 44Z" stroke="white" stroke-width="3"/>
<path d="M45.5607 23.4393C44.9749 22.8536 44.0251 22.8536 43.4393 23.4393C42.8536 24.0251 42.8536 24.9749 43.4393 25.5607L45.5607 23.4393ZM62.4393 44.5607C63.0251 45.1464 63.9749 45.1464 64.5607 44.5607C65.1464 43.9749 65.1464 43.0251 64.5607 42.4393L62.4393 44.5607ZM60 60V61.5C60.8134 61.5 61.4787 60.8516 61.4995 60.0384L60 60ZM47.5 60H46C46 60.8284 46.6716 61.5 47.5 61.5V60ZM43.4393 25.5607L59.4393 41.5607L61.5607 39.4393L45.5607 23.4393L43.4393 25.5607ZM59.4393 41.5607L62.4393 44.5607L64.5607 42.4393L61.5607 39.4393L59.4393 41.5607ZM59.0005 40.4616L58.5005 59.9616L61.4995 60.0384L61.9995 40.5384L59.0005 40.4616ZM60 58.5H47.5V61.5H60V58.5ZM49 60V48.5H46V60H49Z" fill="white"/>
<path d="M23.9569 42.4221C23.3616 42.9982 23.346 43.9478 23.9221 44.5431C24.4982 45.1384 25.4478 45.154 26.0431 44.5779L23.9569 42.4221ZM28.1 60H26.6C26.6 60.8284 27.2716 61.5 28.1 61.5V60ZM41 60V61.5C41.8284 61.5 42.5 60.8284 42.5 60H41ZM41 48.5V47H39.5V48.5H41ZM43.4525 23.4263L27.0525 39.4263L29.1475 41.5737L45.5475 25.5737L43.4525 23.4263ZM27.0569 39.4221L23.9569 42.4221L26.0431 44.5779L29.1431 41.5779L27.0569 39.4221ZM26.6 40.5V60H29.6V40.5H26.6ZM28.1 61.5H41V58.5H28.1V61.5ZM42.5 60V48.5H39.5V60H42.5ZM41 50H49V47H41V50Z" fill="white"/>
<path d="M90.0607 22.9393C89.4749 22.3536 88.5251 22.3536 87.9393 22.9393C87.3536 23.5251 87.3536 24.4749 87.9393 25.0607L90.0607 22.9393ZM106.939 44.0607C107.525 44.6464 108.475 44.6464 109.061 44.0607C109.646 43.4749 109.646 42.5251 109.061 41.9393L106.939 44.0607ZM104.5 59.5V61C105.313 61 105.979 60.3516 106 59.5384L104.5 59.5ZM92 59.5H90.5C90.5 60.3284 91.1716 61 92 61V59.5ZM87.9393 25.0607L103.939 41.0607L106.061 38.9393L90.0607 22.9393L87.9393 25.0607ZM103.939 41.0607L106.939 44.0607L109.061 41.9393L106.061 38.9393L103.939 41.0607ZM103.5 39.9616L103 59.4616L106 59.5384L106.5 40.0384L103.5 39.9616ZM104.5 58H92V61H104.5V58ZM93.5 59.5V48H90.5V59.5H93.5Z" fill="white"/>
<path d="M107 97C101.337 91.1421 92.5 82 92.5 82L87.5 87M83.5 73L88 77.5M73.5 83L97 106.5" stroke="white" stroke-width="3" stroke-linecap="round" stroke-linejoin="round"/>
<path d="M107 97C110.5 101 100.5 110 97 106.5" stroke="white" stroke-width="3"/>
</svg>
