<svg id="Capa_1111" data-name="Capa 1111" xmlns="http://www.w3.org/2000/svg" viewBox="0 0 981.54 173.12">
    <defs><style>.cls-1{fill:#00a8e6;}.cls-2{fill:#f7ae41;}</style></defs>
    <path class="cls-1" d="M546.85,472.51c40.63,0,65,19,65,54.31v12.06c0,21.18-9.43,35.76-24.64,43.85l29.42,58H564.71L542.84,591.7H529.13v49.08H481.46V472.51ZM529.13,509v47.67h16.34c10.93,0,17.32-5.94,17.32-16V524.82c0-9.91-6.39-15.85-17.32-15.85Z" transform="translate(-481.46 -468.31)"/>
    <path class="cls-1" d="M687.58,595.91v44.87H639.91V472.51h64.43c40.23,0,64.57,19,64.57,54.25v16.51c0,35.38-24.34,52.64-64.57,52.64Zm0-86.94v50.48h16.21c14.45,0,17.44-10.12,17.44-22.24v-9c0-11-4.11-19.24-17.44-19.24Z" transform="translate(-481.46 -468.31)"/>
    <path class="cls-1" d="M861,471.11c9.42,0,17.24,5.56,17.24,15.45v4.33c0,8.2-5.66,13.47-13.27,14.77l12.68,22.94h-5.16l-12.29-22.44H847.43V528.6h-4.2V471.11Zm-13.61,4.21V502h13.35c7.78,0,13.29-4.25,13.29-11.81v-3.07c0-7.52-5.51-11.76-13.29-11.76Z" transform="translate(-481.46 -468.31)"/>
    <path class="cls-1" d="M885.29,502.2c0-10.2,6.88-16.21,15.45-16.21s15.4,6,15.4,16.21V509H889.5v4c0,7.6,4.36,12.43,12,12.43a36.21,36.21,0,0,0,11.91-2l.55,3.9a35.67,35.67,0,0,1-12.54,2.27c-9.51,0-16.08-6.3-16.08-16.38Zm4.21,2.56h22.43v-3.07c0-7.85-4.47-12.35-11.21-12.35s-11.22,4.5-11.22,12.35Z" transform="translate(-481.46 -468.31)"/>
    <path class="cls-1" d="M956.71,479.32a29.38,29.38,0,0,1-5.82,9.62,13.32,13.32,0,0,1,4.51,10.56v1.78c0,7.54-6.62,13.75-15.42,13.75a17.86,17.86,0,0,1-5.35-.81c-2.11,1.53-3.63,3.32-3.63,5.11,0,2.34,1.56,3.66,4.47,3.66h9.9c7.42,0,13.53,4.6,13.53,12.56,0,7.7-6.58,12.68-15.13,12.68h-5.69c-8.3,0-14.16-4.26-14.16-11.7,0-5.07,3.58-8.56,6.91-10.56a6.3,6.3,0,0,1-4-5.79c0-3.11,2.23-5.45,4.72-7.28a13.27,13.27,0,0,1-7-11.62v-2.59c0-7.62,6.66-13.62,15.43-13.62a16.67,16.67,0,0,1,8,2,34.85,34.85,0,0,0,4.6-9Zm-21.35,47.84c-3,1.57-6.44,4.46-6.44,9,0,5.12,4.42,7.85,10.12,7.85h4.76c6.2,0,10.91-2.48,10.91-8.51,0-5.71-4.22-8.31-9.63-8.31H939.5c-1.41,0-2.77,0-4.14,0m-6.6-25.67c0,5.85,4.44,10.2,11.22,10.2s11.22-4.35,11.22-10.2v-2c0-5.72-4.44-10.07-11.22-10.07s-11.22,4.35-11.22,10.07Z" transform="translate(-481.46 -468.31)"/>
    <path class="cls-1" d="M968.61,471.61a2.91,2.91,0,0,1,3.2,3.11,3.18,3.18,0,1,1-6.35,0,2.9,2.9,0,0,1,3.15-3.11m2.22,57h-4.21V486.53h4.21Z" transform="translate(-481.46 -468.31)"/>
    <path class="cls-1" d="M993,529.29a37.27,37.27,0,0,1-12.77-2.14l.93-3.78a35.93,35.93,0,0,0,11.51,2c6.6,0,10.12-1.72,10.12-7.1s-2.14-7-10.67-9c-8.78-2.1-11.72-5.12-11.72-12.35,0-6.64,5.46-11.13,13.61-11.13a39.15,39.15,0,0,1,11.3,1.63l-.75,3.83a38.38,38.38,0,0,0-10.34-1.51c-5.75,0-9.58,2.18-9.58,7.26,0,4.79,1.56,6.68,9.75,8.66,9.5,2.27,12.65,4.83,12.65,12.39s-5,11.26-14,11.26" transform="translate(-481.46 -468.31)"/>
    <path class="cls-1" d="M1011.49,486.53h7l.45-11.21h3.75v11.21h11.22v4.21h-11.22v27.69c0,5.41,2.7,7.26,6.51,7.26a27.48,27.48,0,0,0,5.48-.67l.47,3.83a24.37,24.37,0,0,1-6.43.88c-6.07,0-10.24-3.24-10.24-10.76V490.74h-7Z" transform="translate(-481.46 -468.31)"/>
    <path class="cls-1" d="M1046.1,486.53l.39,7.35c3.85-3.93,10.26-7.81,15.48-8.19l0,4.68c-4.78.38-11.27,3.69-15.47,7.9V528.6h-4.21V486.53Z" transform="translate(-481.46 -468.31)"/>
    <path class="cls-1" d="M1067.58,501.84c0-10.16,7.52-16,16.8-16s16.85,5.81,16.85,16v11.37c0,10.16-7.52,16-16.85,16s-16.8-5.81-16.8-16Zm4.21,11.15c0,7.82,5.08,12.56,12.59,12.56S1097,520.81,1097,513V502.06c0-7.81-5.12-12.55-12.64-12.55s-12.59,4.74-12.59,12.55Z" transform="translate(-481.46 -468.31)"/>
    <path class="cls-1" d="M1156.37,528.6l-.29-5c-3.71,3.26-8.69,5.84-13.91,5.84-8.31,0-14.3-6.18-14.3-16.24V502.67c0-10.12,7-16.38,17.31-16.38a31.39,31.39,0,0,1,10.74,1.93V468.31h4.2V528.6Zm-.45-8.41V491.42a31.06,31.06,0,0,0-10.88-2.11c-8.43,0-13,5.22-13,13v10.46c0,7.81,3.5,12.91,11,12.91,4.49,0,9.76-2.64,12.87-6" transform="translate(-481.46 -468.31)"/>
    <path class="cls-1" d="M1171.34,502.2c0-10.2,6.88-16.21,15.45-16.21s15.4,6,15.4,16.21V509h-26.64v4c0,7.6,4.36,12.43,12,12.43a36.19,36.19,0,0,0,11.9-2l.55,3.9a35.6,35.6,0,0,1-12.53,2.27c-9.51,0-16.08-6.3-16.08-16.38Zm4.21,2.56H1198v-3.07c0-7.85-4.47-12.35-11.21-12.35s-11.22,4.5-11.22,12.35Z" transform="translate(-481.46 -468.31)"/><rect class="cls-1" x="748.78" width="4.21" height="60.29"/>
    <path class="cls-1" d="M1258.28,506.16h9.81V499.4c0-6.22-2.81-9.58-9.2-9.58a36,36,0,0,0-11,1.93l-.55-3.86a36.31,36.31,0,0,1,11.82-2.18c9,0,13.1,4.87,13.1,14.07v22.1c0,2.22,1.11,3.53,3,3.53a8.65,8.65,0,0,0,2.58-.38l.27,3.44a9.67,9.67,0,0,1-3.81.76c-3.17,0-5.39-1.81-5.83-5.42-3.53,3.11-7.58,5.42-12.14,5.42-6.87,0-11.43-4.16-11.43-11.22,0-7.56,5.32-11.85,13.1-11.85m10.07,15.43V510.37h-10.5c-6.13,0-9.66,2.77-9.66,8.23,0,4.75,3.36,7.57,8.27,7.57,4.25,0,8-1.93,11.89-5.08" transform="translate(-481.46 -468.31)"/>
    <path class="cls-1" d="M867.06,616.94v22.43H841.82V552.44h33.91c20.81,0,33.4,9.92,33.4,28.35v8.63c0,18.5-12.59,27.52-33.4,27.52Zm0-44.87v26.64h8.11c7.23,0,8.72-5.34,8.72-11.74v-4.75c0-5.8-2.06-10.15-8.72-10.15Z" transform="translate(-481.46 -468.31)"/>
    <path class="cls-1" d="M948.49,552.44c21,0,33.55,9.82,33.55,28.06V587c0,10.89-4.79,18.39-12.53,22.55l15,29.85h-26.4l-11.13-25.24h-7v25.24H914.74V552.44ZM940,572.07v25.24h8.85c5.92,0,9.38-3.15,9.38-8.46v-8.39c0-5.25-3.46-8.39-9.38-8.39Z" transform="translate(-481.46 -468.31)"/>
    <path class="cls-1" d="M987.65,581.1c0-19.06,12.94-29.42,35-29.42s35.08,10.36,35.08,29.42V612c0,19.19-13,29.43-35.08,29.43s-35-10.24-35-29.43ZM1012.89,613c0,5.55,3.47,9.28,9.79,9.28s9.84-3.73,9.84-9.28V580.08c0-5.56-3.53-9.15-9.84-9.15s-9.79,3.59-9.79,9.15Z" transform="translate(-481.46 -468.31)"/>
    <path class="cls-1" d="M1091.42,616.94v22.43h-25.24V552.44h33.62c20.11,0,32.28,9.92,32.28,28.35v8.63c0,18.5-12.17,27.52-32.28,27.52Zm0-44.87v26.64h8.1c7.23,0,8.72-5.34,8.72-11.74v-4.75c0-5.8-2.06-10.15-8.72-10.15Z" transform="translate(-481.46 -468.31)"/><rect class="cls-1" x="657.63" y="84.13" width="25.24" height="86.94"/><polygon class="cls-1" points="692.69 84.13 750.18 84.13 750.18 105.17 717.93 105.17 717.93 119.19 748.78 119.19 748.78 137.42 717.93 137.42 717.93 151.44 751.58 151.44 751.58 171.07 692.69 171.07 692.69 84.13"/>
    <path class="cls-1" d="M1238.65,552.44h33.87c21.82,0,34.84,10.66,34.84,29v29.92c0,19.13-13,28-34.84,28h-33.87Zm43.47,34.72c0-6.68-1.14-15.09-10.07-15.09h-8.16v49.08h8.16c6.71,0,10.07-3.47,10.07-9Z" transform="translate(-481.46 -468.31)"/>
    <path class="cls-1" d="M1362.37,639.37,1359,624h-20l-3.37,15.42h-27.27l23.18-86.93h35l23.12,86.93Zm-20.72-35h14.74l-7.4-33.48Z" transform="translate(-481.46 -468.31)"/>
    <path class="cls-1" d="M1394.29,552.44h33.87c21.82,0,34.84,10.66,34.84,29v29.92c0,19.13-13,28-34.84,28h-33.87Zm43.47,34.72c0-6.68-1.14-15.09-10.06-15.09h-8.17v49.08h8.17c6.71,0,10.06-3.47,10.06-9Z" transform="translate(-481.46 -468.31)"/><rect class="cls-2" x="312.69" y="2.8" width="14.02" height="168.26"/></svg>