<svg width="176" height="70" viewBox="0 0 226 106" fill="none" xmlns="http://www.w3.org/2000/svg">
<path fill-rule="evenodd" clip-rule="evenodd" d="M76.2722 79.8278V80.8043C76.2722 80.9515 76.3255 81.0929 76.4208 81.1982C76.5161 81.3036 76.6458 81.3646 76.7823 81.3682H82.6227C82.6907 81.3648 82.7586 81.3765 82.8222 81.4025C82.8858 81.4285 82.9438 81.4683 82.9926 81.5195C83.0417 81.5714 83.0806 81.6335 83.1069 81.702C83.1331 81.7706 83.1463 81.8442 83.1456 81.9183V85.1229C83.1456 85.2725 83.0905 85.4159 82.9924 85.5216C82.8944 85.6274 82.7614 85.6868 82.6227 85.6868H76.7313C76.6642 85.6845 76.5974 85.6981 76.5358 85.7266C76.4741 85.7551 76.4189 85.7979 76.3742 85.8519C76.3219 85.8981 76.2807 85.9572 76.254 86.0242C76.2274 86.0913 76.2161 86.1642 76.2212 86.237V87.1309C76.2172 87.2035 76.2289 87.2761 76.2555 87.343C76.282 87.4099 76.3227 87.4691 76.3742 87.516C76.4189 87.57 76.4741 87.6128 76.5358 87.6413C76.5974 87.6698 76.6642 87.6834 76.7313 87.6811H83.4261C83.4951 87.6786 83.5638 87.692 83.6276 87.7205C83.6913 87.749 83.7487 87.7918 83.7959 87.8461C83.8447 87.8955 83.8835 87.9551 83.9098 88.0214C83.9361 88.0877 83.9495 88.1591 83.949 88.2312V91.4496C83.9511 91.5219 83.9385 91.5939 83.9121 91.6604C83.8856 91.727 83.846 91.7864 83.7959 91.8347C83.7487 91.889 83.6913 91.9318 83.6276 91.9603C83.5638 91.9887 83.4951 92.0022 83.4261 91.9997H72.5231C72.4541 92.0022 72.3854 91.9887 72.3216 91.9603C72.2579 91.9318 72.2004 91.889 72.1533 91.8347C72.1032 91.7864 72.0636 91.727 72.0371 91.6604C72.0107 91.5939 71.9981 91.5219 72.0002 91.4496V75.5504C71.9997 75.4783 72.0131 75.4069 72.0394 75.3406C72.0657 75.2743 72.1045 75.2147 72.1533 75.1653C72.2004 75.111 72.2579 75.0682 72.3216 75.0397C72.3854 75.0112 72.4541 74.9978 72.5231 75.0003H83.4771C83.5461 74.9978 83.6148 75.0112 83.6786 75.0397C83.7424 75.0682 83.7998 75.111 83.8469 75.1653C83.8957 75.2147 83.9345 75.2743 83.9608 75.3406C83.9871 75.4069 84.0005 75.4783 84 75.5504V78.7138C84.0007 78.7879 83.9875 78.8615 83.9612 78.93C83.9349 78.9986 83.8961 79.0607 83.8469 79.1126C83.7998 79.1669 83.7424 79.2098 83.6786 79.2382C83.6148 79.2667 83.5461 79.2801 83.4771 79.2777H76.7313C76.6654 79.2761 76.6 79.2887 76.5387 79.3147C76.4774 79.3406 76.4215 79.3795 76.3742 79.4289C76.3315 79.4836 76.3003 79.5475 76.2827 79.6163C76.2651 79.6852 76.2615 79.7573 76.2722 79.8278V79.8278Z" fill="white"/>
<path fill-rule="evenodd" clip-rule="evenodd" d="M101 75.5504V91.4498C101.001 91.5208 100.989 91.5915 100.965 91.6576C100.941 91.7237 100.904 91.784 100.858 91.8349C100.757 91.9394 100.623 91.9986 100.483 92H97.25C97.0903 91.9981 96.934 91.9506 96.7974 91.8625C96.6539 91.7787 96.5266 91.6666 96.4224 91.5324L90.7329 83.005C90.7054 82.9562 90.665 82.9171 90.6167 82.8926C90.5683 82.8681 90.5143 82.8594 90.4613 82.8675C90.3708 82.8675 90.3191 82.9775 90.3191 83.1288V91.3811C90.3158 91.5259 90.2603 91.6638 90.164 91.7662C90.0677 91.8687 89.938 91.9277 89.8019 91.9312H86.5304C86.4604 91.9337 86.3908 91.9203 86.3261 91.8918C86.2615 91.8633 86.2033 91.8205 86.1554 91.7662C86.1046 91.7179 86.0644 91.6585 86.0376 91.5919C86.0108 91.5254 85.9981 91.4534 86.0002 91.3811V75.5504C85.9997 75.4783 86.0133 75.4069 86.04 75.3406C86.0667 75.2743 86.106 75.2147 86.1554 75.1653C86.2007 75.1113 86.2567 75.0686 86.3192 75.0401C86.3818 75.0115 86.4494 74.998 86.5175 75.0003H89.8019C89.9597 75.0038 90.1146 75.0462 90.2544 75.1241C90.402 75.195 90.5309 75.3037 90.6294 75.4404L96.306 83.9678C96.4009 84.087 96.4914 84.142 96.5776 84.1328C96.6681 84.1328 96.7198 84.0228 96.7198 83.8715V75.5504C96.7193 75.4783 96.7328 75.4069 96.7595 75.3406C96.7862 75.2743 96.8255 75.2147 96.875 75.1653C96.9228 75.111 96.981 75.0682 97.0457 75.0397C97.1104 75.0112 97.18 74.9978 97.25 75.0003H100.483C100.619 75.0038 100.748 75.0629 100.845 75.1653C100.941 75.2677 100.997 75.4056 101 75.5504V75.5504Z" fill="white"/>
<path fill-rule="evenodd" clip-rule="evenodd" d="M114.438 79.2775H111.281C111.138 79.2752 110.999 79.3293 110.894 79.4288C110.842 79.4807 110.801 79.5428 110.774 79.6114C110.746 79.6799 110.732 79.7535 110.733 79.8276V91.4493C110.735 91.5203 110.722 91.5909 110.697 91.657C110.672 91.7231 110.634 91.7834 110.586 91.8344C110.537 91.8895 110.477 91.9328 110.41 91.9613C110.343 91.9898 110.271 92.0029 110.198 91.9995H106.828C106.756 92.0003 106.684 91.986 106.618 91.9577C106.551 91.9293 106.491 91.8874 106.44 91.8344C106.388 91.7862 106.346 91.7267 106.318 91.6602C106.291 91.5937 106.277 91.5217 106.28 91.4493V79.8276C106.284 79.6823 106.237 79.5403 106.146 79.4288C106.035 79.3284 105.892 79.2745 105.745 79.2775H102.535C102.463 79.2783 102.391 79.2641 102.325 79.2357C102.258 79.2074 102.198 79.1654 102.147 79.1125C102.053 79.0023 102 78.8605 102 78.7136V75.5503C102 75.4074 102.052 75.2698 102.147 75.1652C102.198 75.1122 102.258 75.0703 102.325 75.0419C102.391 75.0136 102.463 74.9994 102.535 75.0002H114.464C114.535 74.9983 114.606 75.0112 114.671 75.0382C114.737 75.0652 114.797 75.1056 114.847 75.1571C114.897 75.2086 114.936 75.27 114.962 75.3376C114.989 75.4052 115.001 75.4776 114.999 75.5503V78.7136C115.003 78.7869 114.991 78.8601 114.966 78.9287C114.941 78.9973 114.902 79.0599 114.852 79.1125C114.801 79.1713 114.736 79.2169 114.664 79.2455C114.592 79.2742 114.515 79.2852 114.438 79.2775V79.2775Z" fill="white"/>
<path fill-rule="evenodd" clip-rule="evenodd" d="M121.144 82.8538H123.626C123.824 82.848 124.019 82.8109 124.205 82.7438C124.409 82.6711 124.597 82.5589 124.757 82.4137C124.927 82.2625 125.068 82.0805 125.171 81.8773C125.285 81.6368 125.341 81.3731 125.336 81.1071C125.332 80.921 125.304 80.7361 125.253 80.5569C125.19 80.3433 125.097 80.1395 124.977 79.9518C124.839 79.7508 124.655 79.5857 124.44 79.4704C124.192 79.3315 123.91 79.2647 123.626 79.2778H121.144C121.001 79.2777 120.863 79.3317 120.758 79.4291C120.705 79.4811 120.663 79.5432 120.634 79.6117C120.606 79.6802 120.591 79.7538 120.592 79.828V82.2899C120.59 82.3643 120.603 82.4384 120.632 82.5072C120.66 82.5759 120.703 82.6379 120.758 82.6887C120.807 82.7413 120.867 82.7831 120.934 82.8115C121 82.8399 121.072 82.8543 121.144 82.8538V82.8538ZM120.027 92H116.552C116.48 92.0005 116.408 91.9861 116.341 91.9577C116.275 91.9293 116.215 91.8875 116.166 91.8349C116.112 91.7867 116.069 91.7272 116.04 91.6607C116.012 91.5942 115.998 91.5222 116 91.4498V75.5506C116.004 75.4058 116.063 75.2679 116.166 75.1654C116.268 75.063 116.407 75.0039 116.552 75.0005H123.792C124.645 74.9905 125.492 75.1446 126.287 75.4543C127.018 75.7337 127.681 76.1651 128.232 76.7197C128.78 77.2703 129.211 77.925 129.501 78.6452C129.807 79.4294 129.956 80.2656 129.942 81.1071C129.942 81.6022 129.887 82.0959 129.776 82.5787C129.657 83.0544 129.486 83.5156 129.266 83.9541C129.062 84.3733 128.808 84.766 128.508 85.1232C128.223 85.4664 127.883 85.7593 127.501 85.9896C127.383 86.0746 127.296 86.1952 127.253 86.3335C127.239 86.3999 127.24 86.4683 127.254 86.5346C127.268 86.6008 127.296 86.6634 127.336 86.7186L129.197 89.1117C129.859 89.9232 130.438 90.6796 130.948 91.3673C130.982 91.4284 131 91.497 131 91.5667C131 91.6365 130.982 91.7051 130.948 91.7662C130.932 91.8328 130.893 91.8915 130.837 91.9318C130.782 91.9721 130.714 91.9914 130.645 91.9862H126.384C126.212 91.981 126.042 91.9388 125.888 91.8624C125.726 91.7915 125.584 91.683 125.474 91.5461C124.977 90.8997 124.495 90.2395 123.998 89.5793L122.619 87.5575C122.52 87.421 122.387 87.3121 122.233 87.2412C122.08 87.1592 121.91 87.1122 121.737 87.1037H121.144C121.072 87.1031 121 87.1175 120.934 87.1459C120.867 87.1743 120.807 87.2161 120.758 87.2687C120.705 87.3206 120.663 87.3827 120.634 87.4513C120.606 87.5198 120.591 87.5934 120.592 87.6676V91.4361C120.595 91.5084 120.581 91.5804 120.552 91.647C120.524 91.7135 120.481 91.773 120.427 91.8212C120.379 91.8763 120.319 91.9206 120.253 91.9514C120.186 91.9822 120.114 91.9988 120.041 92H120.027Z" fill="white"/>
<path fill-rule="evenodd" clip-rule="evenodd" d="M136.264 79.8277V80.8042C136.264 80.8784 136.277 80.952 136.303 81.0205C136.329 81.0891 136.368 81.1512 136.417 81.2031C136.465 81.2574 136.522 81.3002 136.586 81.3287C136.65 81.3572 136.719 81.3706 136.788 81.3681H142.621C142.689 81.3647 142.757 81.3764 142.821 81.4024C142.885 81.4284 142.943 81.4683 142.991 81.5194C143.041 81.5713 143.08 81.6334 143.106 81.702C143.132 81.7705 143.145 81.8441 143.145 81.9183V85.123C143.145 85.2725 143.089 85.4159 142.991 85.5217C142.893 85.6275 142.76 85.6869 142.621 85.6869H136.788C136.719 85.6844 136.65 85.6978 136.586 85.7263C136.522 85.7548 136.465 85.7976 136.417 85.8519C136.367 85.9002 136.328 85.9596 136.301 86.0262C136.275 86.0927 136.262 86.1647 136.264 86.237V87.131C136.264 87.2031 136.277 87.2746 136.303 87.3409C136.33 87.4071 136.369 87.4668 136.417 87.5162C136.465 87.5705 136.522 87.6133 136.586 87.6418C136.65 87.6702 136.719 87.6837 136.788 87.6812H143.489C143.558 87.6804 143.626 87.6946 143.69 87.723C143.754 87.7513 143.811 87.7933 143.859 87.8463C143.95 87.9508 144 88.0885 144 88.2314V91.4498C144.001 91.5208 143.99 91.5914 143.966 91.6575C143.941 91.7236 143.905 91.7839 143.859 91.8349C143.811 91.8879 143.754 91.9298 143.69 91.9582C143.626 91.9865 143.558 92.0008 143.489 92H132.511C132.442 92.0008 132.374 91.9865 132.311 91.9582C132.247 91.9298 132.189 91.8879 132.141 91.8349C132.093 91.7854 132.056 91.7254 132.032 91.6589C132.008 91.5924 131.997 91.5211 132.001 91.4498V75.5502C131.998 75.479 132.009 75.4079 132.033 75.3416C132.057 75.2752 132.094 75.2151 132.141 75.1651C132.189 75.1121 132.247 75.0702 132.311 75.0418C132.374 75.0134 132.442 74.9992 132.511 75H143.489C143.558 74.9992 143.626 75.0134 143.69 75.0418C143.754 75.0702 143.811 75.1121 143.859 75.1651C143.95 75.2696 144 75.4073 144 75.5502V78.7136C144 78.8605 143.95 79.0023 143.859 79.1125C143.811 79.1654 143.754 79.2074 143.69 79.2357C143.626 79.2641 143.558 79.2783 143.489 79.2775H136.788C136.651 79.2752 136.518 79.3293 136.417 79.4288C136.368 79.4807 136.329 79.5428 136.303 79.6114C136.277 79.6799 136.264 79.7535 136.264 79.8277Z" fill="white"/>
<path fill-rule="evenodd" clip-rule="evenodd" d="M163.452 79.2747H160.282C160.21 79.2722 160.138 79.2857 160.071 79.3142C160.004 79.3427 159.944 79.3856 159.894 79.4401C159.843 79.4896 159.802 79.5494 159.775 79.6158C159.747 79.6822 159.733 79.7538 159.734 79.8261V91.448C159.734 91.5912 159.681 91.7292 159.586 91.834C159.537 91.8892 159.477 91.9327 159.41 91.9612C159.343 91.9898 159.271 92.0029 159.199 91.9995H155.815C155.743 92.0003 155.671 91.986 155.604 91.9576C155.538 91.9292 155.477 91.8871 155.427 91.834C155.332 91.7292 155.28 91.5912 155.28 91.448V79.8261C155.28 79.6829 155.227 79.5449 155.133 79.4401C155.081 79.3846 155.019 79.3411 154.949 79.3125C154.88 79.284 154.806 79.2711 154.731 79.2747H151.535C151.463 79.2755 151.391 79.2612 151.325 79.2328C151.258 79.2044 151.198 79.1623 151.147 79.1092C151.052 79.0044 151 78.8664 151 78.7232V75.5523C151 75.4091 151.052 75.2711 151.147 75.1663C151.198 75.1132 151.258 75.0712 151.325 75.0428C151.391 75.0143 151.463 75.0001 151.535 75.0009H163.452C163.526 74.9964 163.601 75.0089 163.67 75.0375C163.74 75.0661 163.802 75.1101 163.853 75.1663C163.948 75.2711 164 75.4091 164 75.5523V78.7232C164 78.8664 163.948 79.0044 163.853 79.1092C163.802 79.1655 163.74 79.2095 163.67 79.2381C163.601 79.2667 163.526 79.2792 163.452 79.2747V79.2747Z" fill="white"/>
<path fill-rule="evenodd" clip-rule="evenodd" d="M167.453 83.4535C167.45 84.0099 167.558 84.5613 167.772 85.0749C167.971 85.5669 168.259 86.0176 168.623 86.4038C169.006 86.7918 169.456 87.107 169.952 87.3341C170.443 87.5615 170.979 87.6793 171.52 87.6793C172.062 87.6793 172.597 87.5615 173.089 87.3341C173.584 87.1057 174.034 86.7907 174.418 86.4038C174.79 86.0216 175.083 85.5701 175.282 85.0749C175.707 84.045 175.707 82.8886 175.282 81.8587C175.085 81.3624 174.792 80.9104 174.418 80.5297C174.037 80.1425 173.586 79.8313 173.089 79.6127C172.597 79.3853 172.062 79.2675 171.52 79.2675C170.979 79.2675 170.443 79.3853 169.952 79.6127C169.454 79.8301 169.003 80.1415 168.623 80.5297C167.882 81.33 167.466 82.3767 167.453 83.4668V83.4535ZM163.014 83.4535C163.008 82.3239 163.239 81.2056 163.692 80.1709C164.127 79.1817 164.739 78.2808 165.499 77.5129C166.26 76.7402 167.162 76.1219 168.158 75.6922C169.206 75.2356 170.337 75 171.48 75C172.624 75 173.755 75.2356 174.803 75.6922C176.837 76.5574 178.457 78.1769 179.322 80.2108C179.769 81.2497 180 82.3689 180 83.5C180 84.6311 179.769 85.7503 179.322 86.7892C178.457 88.8231 176.837 90.4426 174.803 91.3078C173.755 91.7644 172.624 92 171.48 92C170.337 92 169.206 91.7644 168.158 91.3078C167.162 90.8781 166.26 90.2598 165.499 89.4871C164.739 88.7192 164.127 87.8183 163.692 86.8291C163.221 85.7667 162.986 84.6153 163.001 83.4535H163.014Z" fill="white"/>
<path fill-rule="evenodd" clip-rule="evenodd" d="M185.679 87.758H187.268C187.689 87.759 188.109 87.7033 188.519 87.5922C188.936 87.4894 189.325 87.2813 189.657 86.9843C190.024 86.6342 190.311 86.1941 190.495 85.6994C190.929 84.3025 190.929 82.7858 190.495 81.3889C190.311 80.8946 190.018 80.4581 189.645 80.1178C189.317 79.8194 188.932 79.6069 188.519 79.4961C188.109 79.3859 187.689 79.3303 187.268 79.3304H185.679C185.613 79.3298 185.548 79.3443 185.488 79.3728C185.428 79.4013 185.373 79.4433 185.329 79.4961C185.279 79.5473 185.24 79.6095 185.214 79.6786C185.188 79.7477 185.176 79.8221 185.178 79.8968V87.2054C185.182 87.3508 185.235 87.4893 185.329 87.5922C185.422 87.6951 185.547 87.7545 185.679 87.758V87.758ZM181 91.4744V75.5586C181 75.4862 181.013 75.4145 181.038 75.3479C181.064 75.2813 181.102 75.2213 181.15 75.1718C181.197 75.1186 181.254 75.0765 181.316 75.048C181.379 75.0195 181.445 75.0052 181.513 75.006H187.268C189.256 74.9236 191.196 75.6906 192.685 77.1475C193.435 77.919 194.024 78.862 194.411 79.9106C194.814 81.0552 195.014 82.2748 194.999 83.5027C195.015 84.7397 194.815 85.9685 194.411 87.1225C194.023 88.1703 193.434 89.1129 192.685 89.8856C191.977 90.5735 191.158 91.1078 190.27 91.4606C189.305 91.8293 188.289 92.0116 187.268 91.9994H181.513C181.445 92.0002 181.379 91.986 181.316 91.9575C181.254 91.929 181.197 91.8868 181.15 91.8336C181.06 91.7401 181.006 91.6112 181 91.4744V91.4744Z" fill="white"/>
<path fill-rule="evenodd" clip-rule="evenodd" d="M200.245 83.4933C200.244 84.0518 200.342 84.6054 200.534 85.1251C200.73 85.6182 201.007 86.0709 201.35 86.4625C201.712 86.853 202.138 87.1702 202.606 87.3988C203.07 87.6277 203.576 87.7462 204.088 87.7462C204.6 87.7462 205.105 87.6277 205.57 87.3988C206.038 87.1689 206.463 86.8519 206.826 86.4625C207.177 86.0778 207.455 85.6234 207.642 85.1251C208.044 84.0886 208.044 82.9248 207.642 81.8883C207.457 81.3888 207.179 80.934 206.826 80.5508C206.466 80.1611 206.04 79.8479 205.57 79.628C205.105 79.3991 204.6 79.2805 204.088 79.2805C203.576 79.2805 203.07 79.3991 202.606 79.628C202.136 79.8468 201.709 80.1601 201.35 80.5508C200.638 81.3475 200.242 82.4065 200.245 83.5067V83.4933ZM196.05 83.4933C196.044 82.3565 196.262 81.231 196.691 80.1897C197.102 79.1942 197.68 78.2875 198.399 77.5147C199.117 76.7371 199.97 76.1148 200.911 75.6824C201.887 75.2235 202.945 74.991 204.013 75.0003C205.084 74.9939 206.145 75.2263 207.127 75.6824C208.066 76.1183 208.918 76.7401 209.639 77.5147C210.361 78.2868 210.944 79.1935 211.359 80.1897C211.782 81.2353 212 82.3617 212 83.5C212 84.6383 211.782 85.7647 211.359 86.8103C210.944 87.8065 210.361 88.7132 209.639 89.4853C208.918 90.2599 208.066 90.8817 207.127 91.3176C206.145 91.7737 205.084 92.0061 204.013 91.9997C202.945 92.009 201.887 91.7765 200.911 91.3176C199.97 90.8852 199.117 90.2629 198.399 89.4853C197.68 88.7125 197.102 87.8058 196.691 86.8103C196.244 85.7688 196.008 84.6384 196 83.4933H196.05Z" fill="white"/>
<path fill-rule="evenodd" clip-rule="evenodd" d="M215.432 86.106C216.147 86.6034 216.909 87.02 217.706 87.3488C218.38 87.6262 219.094 87.7755 219.817 87.7898C220.308 87.8244 220.799 87.7279 221.245 87.5092C221.396 87.4356 221.524 87.3166 221.612 87.1668C221.699 87.0171 221.743 86.8433 221.738 86.6673C221.739 86.5788 221.721 86.4913 221.683 86.4122C221.646 86.333 221.591 86.2647 221.523 86.2129C221.355 86.0778 221.161 85.9821 220.954 85.9323C220.686 85.8475 220.411 85.7849 220.133 85.7452C219.83 85.7452 219.501 85.6383 219.185 85.5715L218.06 85.3042C217.631 85.2171 217.209 85.0965 216.796 84.9434C216.362 84.7746 215.94 84.5737 215.533 84.342C215.103 84.105 214.714 83.7933 214.383 83.4199C214.031 83.0341 213.752 82.5804 213.561 82.0836C213.338 81.5027 213.231 80.8795 213.245 80.2528C213.206 79.4279 213.374 78.6067 213.731 77.8722C214.088 77.1378 214.623 76.5161 215.28 76.07C215.887 75.6748 216.554 75.3944 217.251 75.2415C217.945 75.0844 218.653 75.0038 219.362 75.0009C220.45 74.985 221.532 75.1704 222.559 75.5489C223.537 75.9408 224.453 76.4859 225.277 77.1658C225.332 77.2133 225.377 77.2721 225.409 77.3388C225.442 77.4055 225.461 77.4785 225.466 77.5534C225.477 77.6954 225.442 77.8371 225.365 77.9543L223.697 80.4532C223.613 80.5705 223.492 80.6513 223.356 80.6804C223.29 80.6955 223.222 80.6949 223.156 80.6787C223.091 80.6625 223.029 80.6312 222.976 80.5869C222.348 80.1519 221.668 79.806 220.954 79.5579C220.398 79.3719 219.819 79.2729 219.236 79.2639H218.692C218.492 79.2734 218.293 79.3048 218.098 79.3575C217.932 79.4082 217.777 79.4946 217.643 79.6114C217.582 79.6757 217.535 79.7532 217.504 79.8384C217.474 79.9237 217.461 80.0148 217.466 80.1058C217.466 80.3196 217.618 80.5067 217.909 80.6804C218.238 80.8538 218.58 80.9969 218.932 81.1081C219.293 81.2238 219.661 81.3175 220.032 81.3887L220.727 81.509C221.29 81.6293 221.847 81.7809 222.395 81.9633C223.009 82.1718 223.588 82.4782 224.114 82.872C224.66 83.2814 225.117 83.81 225.454 84.4222C225.839 85.1518 226.027 85.9793 225.997 86.8143C226.015 87.6188 225.863 88.4174 225.555 89.1529C225.264 89.7887 224.83 90.3393 224.291 90.7565C223.721 91.202 223.072 91.5203 222.382 91.6919C221.556 91.9065 220.706 92.0098 219.855 91.9993C219.164 92.0007 218.475 91.9381 217.795 91.8122C217.187 91.69 216.591 91.5111 216.013 91.2777C215.474 91.0591 214.953 90.7908 214.458 90.4758C214.017 90.1817 213.594 89.8558 213.195 89.5003C213.139 89.4567 213.093 89.4006 213.06 89.3358C213.027 89.2711 213.008 89.1995 213.005 89.1261C212.986 88.9794 213.022 88.8304 213.106 88.7119L214.749 86.2129C214.83 86.0979 214.948 86.0182 215.081 85.9886C215.213 85.9591 215.352 85.9818 215.469 86.0525L215.432 86.106Z" fill="white"/>
<path fill-rule="evenodd" clip-rule="evenodd" d="M10.8592 10.5369L11.3439 14.4644L8.50504 18.0277L6.05854 19.0978L4.41985 21.3063L0 34.1819L0.380825 47.2054L7.03945 50.5524L7.52413 51.8957L7.22409 52.8406L8.10113 54.5141H11.9209L12.7979 58.8173L10.5592 67.0026L9.46286 68.6191L10.3399 97L33.1546 96.8406L33.3739 86.9363L40.0902 86.6062L53.2574 66.9001L54.123 66.6269L55 65.386L54.4576 64.0996L54.6192 61.8341L53.5806 59.6825L53.8575 58.1684L53.3613 56.5063L52.265 54.5141L49.4838 51.816L48.9876 49.7669L49.6454 48.6398L48.8838 46.215L49.1607 45.1449L49.0453 44.2228L50.4186 43.3576L54.2384 29.5713L50.0262 24.3004L49.7608 23.0595L44.6832 22.8432L43.8061 20.7371L44.187 18.3237L41.6828 15.0336L41.5674 14.066L32.1737 12.3356L31.9083 11.3224L28.0885 11.3679L27.4308 10.5027L25.6882 10.9922L24.4765 10.0246L20.2182 9L10.8592 10.5369Z" fill="white"/>
<path d="M64.9858 26.7483L64.9869 0.000366211L62.0019 -3.64577e-06L62.0007 26.7479L64.9858 26.7483Z" fill="#77091B"/>
<path d="M64.9859 53.4962L64.9864 26.7483L62.0013 26.7479L62.0008 53.4958L64.9859 53.4962Z" fill="#C5411A"/>
<path d="M64.9916 80.2521L64.986 53.5041L62.0009 53.5044L62.0066 80.2523L64.9916 80.2521Z" fill="#E68927"/>
<path d="M64.9851 105.755L64.9855 80.2524L62.0005 80.252L62 105.755L64.9851 105.755Z" fill="#009ED6"/>
<path fill-rule="evenodd" clip-rule="evenodd" d="M79.4191 18.3443C80.3238 18.3228 81.2054 18.6208 81.8966 19.1818C82.5877 19.7427 83.0405 20.5277 83.1691 21.3879L83.3174 22.0225H87L86.8246 21.077C86.5945 19.3631 85.7093 17.7924 84.3408 16.67C82.9723 15.5475 81.2182 14.9534 79.4191 15.0029C78.4182 14.9892 77.4247 15.169 76.4977 15.5317C75.5707 15.8944 74.7292 16.4325 74.0234 17.1139C72 19.0566 72 20.9993 72 25.0013C72 29.0032 72 30.9459 74.0234 32.8886C74.7601 33.5773 75.6321 34.1185 76.5886 34.4807C77.5452 34.8429 78.5672 35.0189 79.5952 34.9984C80.6232 34.9779 81.6367 34.7614 82.5768 34.3614C83.5169 33.9614 84.3647 33.3859 85.071 32.6685C85.7238 31.9677 86.2227 31.1477 86.5379 30.2576C86.8531 29.3675 86.9782 28.4255 86.9056 27.4879V23.7579H78.5692V27.0735H83.196V27.6433C83.2984 28.63 83.0041 29.6169 82.3732 30.402C82.0287 30.7767 81.609 31.0809 81.1393 31.2963C80.6696 31.5117 80.1594 31.6339 79.6393 31.6557C79.1192 31.6775 78.5999 31.5983 78.1124 31.4229C77.6249 31.2476 77.1793 30.9796 76.8022 30.6351C75.8444 29.7415 75.6286 28.8478 75.6286 25.0013C75.6286 21.1547 75.7905 20.287 76.7077 19.3934C77.0612 19.0501 77.484 18.7799 77.9503 18.5995C78.4166 18.419 78.9165 18.3322 79.4191 18.3443V18.3443Z" fill="white"/>
<path fill-rule="evenodd" clip-rule="evenodd" d="M98.5223 25.0073C98.5223 28.8958 98.3694 29.7254 97.5032 30.6198C96.8224 31.262 95.9284 31.6189 95 31.6189C94.0716 31.6189 93.1776 31.262 92.4968 30.6198C91.6306 29.7254 91.4777 28.831 91.4777 25.0073C91.4777 21.1835 91.6306 20.2892 92.4968 19.3948C93.1592 18.7328 94.0498 18.3608 94.9783 18.3584C95.9068 18.3559 96.7993 18.7233 97.465 19.3818C98.3312 20.2762 98.4841 21.1706 98.4841 24.9943L98.5223 25.0073ZM94.9936 15.0007C94.0486 14.9885 93.1108 15.1691 92.2356 15.532C91.3604 15.8949 90.5655 16.4327 89.8981 17.1135C88 19.0578 88 21.0021 88 25.0073C88 29.0125 88 30.9568 89.8981 32.9011C91.2644 34.2473 93.0917 35 94.9936 35C96.8955 35 98.7229 34.2473 100.089 32.9011C102 30.9568 102 29.0125 102 25.0073C102 21.0021 102 19.0578 100.089 17.1135C99.4226 16.4315 98.6279 15.893 97.7525 15.53C96.8771 15.167 95.9388 14.987 94.9936 15.0007V15.0007Z" fill="white"/>
<path fill-rule="evenodd" clip-rule="evenodd" d="M111.65 26.4398C113.434 26.4398 114.468 27.3734 114.468 28.9776C114.489 29.3494 114.428 29.7212 114.291 30.0662C114.153 30.4112 113.942 30.7208 113.672 30.9725C113.402 31.2242 113.081 31.4117 112.732 31.5216C112.382 31.6314 112.013 31.6607 111.65 31.6075H107.528V26.4398H111.65ZM111.444 23.0473H107.567V18.3268H111.444C112.736 18.3268 114.183 18.7344 114.183 20.6673C114.183 22.6003 112.465 23.0473 111.444 23.0473ZM115.902 24.6515C116.472 24.1706 116.931 23.5677 117.246 22.8859C117.561 22.2041 117.724 21.4601 117.724 20.7068C117.724 17.288 115.256 15 111.599 15H104V35H111.818C115.695 35 117.996 32.7383 117.996 29.096C118.03 28.2375 117.857 27.3836 117.492 26.6088C117.127 25.834 116.581 25.162 115.902 24.6515V24.6515Z" fill="white"/>
<path d="M124 15H120V35H124V15Z" fill="white"/>
<path fill-rule="evenodd" clip-rule="evenodd" d="M126 35H139V31.6184H129.594V26.6184H137.623V23.2237H129.594V18.3947H139V15H126V35Z" fill="white"/>
<path fill-rule="evenodd" clip-rule="evenodd" d="M150.516 20.9055C150.516 22.9921 148.982 23.4383 147.684 23.4383H143.619V18.3596H147.684C148.043 18.305 148.411 18.3308 148.759 18.4352C149.108 18.5396 149.429 18.72 149.7 18.9634C149.971 19.2068 150.184 19.5071 150.325 19.8429C150.466 20.1787 150.531 20.5416 150.516 20.9055ZM154.108 20.9055C154.108 17.3753 151.604 15 147.867 15H140V35H143.593V26.8635H146.674L150.857 35H155L150.49 26.3648C151.6 25.9589 152.551 25.2069 153.203 24.2193C153.854 23.2318 154.172 22.061 154.108 20.8793V20.9055Z" fill="white"/>
<path fill-rule="evenodd" clip-rule="evenodd" d="M168.445 27.7763L160.075 15H157V35H160.555V22.1711L168.925 35H172V15H168.445V27.7763Z" fill="white"/>
<path fill-rule="evenodd" clip-rule="evenodd" d="M184.535 25.0073C184.535 28.8958 184.369 29.7254 183.503 30.6198C182.822 31.262 181.928 31.6189 181 31.6189C180.072 31.6189 179.178 31.262 178.497 30.6198C177.631 29.7254 177.478 28.831 177.478 25.0073C177.478 21.1835 177.631 20.2892 178.497 19.3948C179.163 18.7228 180.062 18.3457 181 18.3457C181.938 18.3457 182.837 18.7228 183.503 19.3948C184.369 20.2892 184.535 21.1835 184.535 25.0073ZM181.006 15.0007C180.061 14.987 179.123 15.167 178.247 15.53C177.372 15.893 176.577 16.4315 175.911 17.1135C174 19.0578 174 21.0021 174 25.0073C174 29.0125 174 30.9568 175.911 32.9011C177.277 34.2473 179.104 35 181.006 35C182.908 35 184.736 34.2473 186.102 32.9011C188 30.9568 188 29.0125 188 25.0073C188 21.0021 188 19.0578 186.102 17.1135C185.434 16.4327 184.64 15.8949 183.764 15.532C182.889 15.1691 181.951 14.9885 181.006 15.0007V15.0007Z" fill="white"/>
<path fill-rule="evenodd" clip-rule="evenodd" d="M207.249 24.553V25.0657C207.249 27.0379 207.249 29.5096 206.222 30.522C205.808 30.9084 205.313 31.2065 204.771 31.3968C204.229 31.5871 203.651 31.6653 203.075 31.6264H199.777V18.3999H203.075C203.649 18.3575 204.226 18.4316 204.768 18.6173C205.31 18.8031 205.806 19.0963 206.222 19.478C207.249 20.5035 207.249 22.5545 207.249 24.5398V24.553ZM208.877 16.9405C208.145 16.2841 207.283 15.7749 206.343 15.443C205.403 15.1111 204.404 14.9631 203.403 15.0078H196V34.9922H203.403C204.404 35.0369 205.403 34.8889 206.343 34.557C207.283 34.2251 208.145 33.7159 208.877 33.0595C211.012 30.9953 211.012 27.8005 210.998 25.1709V24.4215C210.998 21.9234 210.998 18.9915 208.877 16.9405Z" fill="white"/>
<path fill-rule="evenodd" clip-rule="evenodd" d="M213 35H226V31.6184H216.594V26.6184H224.609V23.2237H216.594V18.3947H226V15H213V35Z" fill="white"/>
<path fill-rule="evenodd" clip-rule="evenodd" d="M81.5115 65.9902C80.2187 66.0207 78.9334 65.7887 77.7348 65.3083C76.5362 64.828 75.4498 64.1096 74.5427 63.1975C73.4612 62.1382 72.7291 60.7797 72.4429 59.3006C72.1043 57.2007 71.9593 55.0747 72.0098 52.9488C71.9664 50.8618 72.1113 48.7752 72.4429 46.7138C72.717 45.2305 73.4509 43.8686 74.5427 42.8169C75.4492 41.9031 76.5352 41.1827 77.7337 40.7002C78.9322 40.2176 80.2179 39.9831 81.5115 40.0112C83.8382 39.8963 86.1205 40.6709 87.8866 42.1747C89.6526 43.6784 90.7672 45.7964 91 48.0907H85.8948C85.7467 47.0616 85.2202 46.1229 84.4163 45.4542C83.6123 44.7854 82.5873 44.4338 81.5377 44.4666C80.9371 44.4254 80.3349 44.521 79.7775 44.7462C79.2201 44.9714 78.7223 45.3201 78.3224 45.7655C77.2725 46.8696 77.01 48.0257 77.01 52.9747C77.01 57.9237 77.2331 59.0668 78.3224 60.1839C78.7223 60.6294 79.2201 60.9781 79.7775 61.2033C80.3349 61.4284 80.9371 61.5241 81.5377 61.4829C82.5873 61.5157 83.6123 61.164 84.4163 60.4953C85.2202 59.8266 85.7467 58.8878 85.8948 57.8588H91C90.7736 60.1599 89.6627 62.287 87.8967 63.8004C86.1308 65.3138 83.8448 66.0977 81.5115 65.9902V65.9902Z" fill="white"/>
<path fill-rule="evenodd" clip-rule="evenodd" d="M104.684 45.8263C104.273 45.3948 103.773 45.0557 103.22 44.8315C102.666 44.6074 102.071 44.5035 101.474 44.5267C100.871 44.5037 100.27 44.6076 99.7104 44.8316C99.1505 45.0555 98.6444 45.3944 98.2249 45.8263C97.2592 46.9049 96.9982 48.0876 96.9982 53.0131C96.9982 57.9386 97.2592 59.1082 98.2249 60.1869C98.6428 60.6207 99.1488 60.961 99.709 61.1851C100.269 61.4091 100.871 61.5119 101.474 61.4865C102.071 61.5122 102.667 61.4094 103.221 61.1851C103.775 60.9609 104.274 60.6204 104.684 60.1869C105.65 59.1082 105.989 57.9256 105.989 53.0131C105.989 48.1006 105.702 46.9049 104.684 45.8263ZM108.39 63.202C107.494 64.1192 106.417 64.8412 105.227 65.3222C104.036 65.8031 102.758 66.0326 101.474 65.9961C100.184 66.0333 98.9 65.8043 97.7031 65.3234C96.5061 64.8426 95.422 64.1203 94.5189 63.202C91.909 60.6027 92.0004 57.4187 92.0004 53.0131C92.0004 48.6074 91.9221 45.4104 94.5189 42.8112C95.4194 41.8886 96.5028 41.1626 97.7002 40.6793C98.8975 40.1961 100.183 39.9661 101.474 40.004C102.76 39.9668 104.039 40.1972 105.23 40.6806C106.421 41.164 107.497 41.8897 108.39 42.8112C111 45.4104 111 48.5814 111 53.0001C111 57.4187 110.987 60.6157 108.39 63.202Z" fill="white"/>
<path fill-rule="evenodd" clip-rule="evenodd" d="M125.02 44.5447H120.158V51.4014H125.02C125.496 51.4305 125.973 51.3634 126.422 51.2043C126.87 51.0451 127.281 50.7973 127.628 50.4761C127.976 50.1549 128.253 49.7671 128.442 49.3366C128.631 48.9061 128.729 48.4421 128.729 47.9731C128.729 47.5041 128.631 47.04 128.442 46.6095C128.253 46.179 127.976 45.7912 127.628 45.47C127.281 45.1488 126.87 44.901 126.422 44.7419C125.973 44.5827 125.496 44.5156 125.02 44.5447V44.5447ZM129.05 66L123.892 55.6423H120.158V66H115V40H125.356C130.729 40 133.912 43.6067 133.912 47.9268C133.957 49.4214 133.513 50.8907 132.645 52.1181C131.777 53.3455 130.53 54.266 129.09 54.7439L135 65.9472L129.05 66Z" fill="white"/>
<path fill-rule="evenodd" clip-rule="evenodd" d="M150.733 46.1622C150.27 45.6135 149.684 45.1815 149.02 44.9015C148.357 44.6216 147.637 44.5018 146.918 44.5518H143.064V61.4613H146.918C147.64 61.5066 148.363 61.3806 149.026 61.0937C149.689 60.8068 150.274 60.3672 150.733 59.8113C151.69 58.6497 151.836 56.7884 151.836 52.8416C151.836 48.8947 151.69 47.271 150.733 46.1094V46.1622ZM154.295 63.5074C153.368 64.3538 152.28 65.009 151.096 65.435C149.912 65.8609 148.655 66.0493 147.397 65.989H138V40.0109H147.437C148.693 39.9511 149.95 40.1383 151.134 40.5619C152.317 40.9855 153.405 41.6371 154.335 42.4793C157.272 45.3966 156.993 48.9739 156.993 52.868C156.993 56.762 157.232 60.5901 154.295 63.5074Z" fill="white"/>
<path fill-rule="evenodd" clip-rule="evenodd" d="M172.675 45.8131C172.266 45.3792 171.767 45.0385 171.214 44.814C170.66 44.5896 170.065 44.4868 169.468 44.5125C168.867 44.4889 168.268 44.5927 167.711 44.8169C167.153 45.041 166.65 45.3806 166.234 45.8131C165.255 46.8925 165.008 48.076 165.008 53.0051C165.008 57.9342 165.255 59.1047 166.234 60.1842C166.649 60.618 167.152 60.9584 167.71 61.1827C168.267 61.407 168.867 61.51 169.468 61.4847C170.065 61.5131 170.661 61.4114 171.215 61.1868C171.769 60.9623 172.267 60.6201 172.675 60.1842C173.653 59.1047 173.979 57.9212 173.979 53.0051C173.979 48.089 173.693 46.8925 172.675 45.8131ZM176.392 63.2015C174.534 64.9964 172.048 66 169.461 66C166.874 66 164.388 64.9964 162.53 63.2015C159.922 60.6004 160 57.414 160 53.0051C160 48.5962 160 45.3839 162.53 42.8088C164.385 41.0078 166.872 40 169.461 40C172.05 40 174.537 41.0078 176.392 42.8088C179 45.4099 179 48.5832 179 53.0051C179 57.427 178.974 60.6134 176.392 63.2015Z" fill="white"/>
<path fill-rule="evenodd" clip-rule="evenodd" d="M193.448 55.0874H188.118V61.4685H193.448C193.888 61.4966 194.33 61.4349 194.745 61.2873C195.16 61.1396 195.54 60.9092 195.862 60.6102C196.183 60.3111 196.44 59.9499 196.615 59.5488C196.79 59.1476 196.881 58.7151 196.881 58.2779C196.881 57.8408 196.79 57.4083 196.615 57.0071C196.44 56.606 196.183 56.2447 195.862 55.9457C195.54 55.6467 195.16 55.4163 194.745 55.2686C194.33 55.121 193.888 55.0593 193.448 55.0874ZM193.115 44.5183H188.118V50.5691H193.115C193.541 50.6177 193.972 50.5766 194.38 50.4484C194.789 50.3202 195.165 50.1079 195.485 49.8253C195.805 49.5428 196.061 49.1963 196.236 48.8088C196.411 48.4213 196.502 48.0014 196.502 47.5767C196.502 47.1521 196.411 46.7322 196.236 46.3446C196.061 45.9571 195.805 45.6107 195.485 45.3281C195.165 45.0456 194.789 44.8332 194.38 44.705C193.972 44.5768 193.541 44.5357 193.115 44.5844V44.5183ZM193.968 65.9736H183V40H193.515C198.633 40 201.618 42.8404 201.618 47.2927C201.625 48.3949 201.326 49.4778 200.755 50.4236C200.184 51.3693 199.362 52.1417 198.379 52.6565C199.508 53.1511 200.459 53.9747 201.104 55.0179C201.749 56.061 202.058 57.2742 201.991 58.4959C201.991 63.3709 198.633 66 193.968 66V65.9736Z" fill="white"/>
<path fill-rule="evenodd" clip-rule="evenodd" d="M214.653 47.689L211.341 57.1748H217.846L214.653 47.7287V47.689ZM220.746 66L219.202 61.4024H209.891L208.321 66H203L212.458 40H216.449L226 65.9736L220.746 66Z" fill="white"/>
<path fill-rule="evenodd" clip-rule="evenodd" d="M103.783 39H98L99.2174 36H105L103.783 39Z" fill="white"/>
</svg>
